<svg height="512" viewBox="0 0 128 128" width="512" xmlns="http://www.w3.org/2000/svg"><g id="Circle_Grid" data-name="Circle Grid"><circle cx="64" cy="64" fill="#2cbfae" r="64"/></g><g id="icon"><path d="m23.239 104.956-.239-.239 15.697-16.934 1.476 1.476z" fill="#eeefee"/><path d="m40.764 76.745h6.108a0 0 0 0 1 0 0v12.664a2.122 2.122 0 0 1 -2.122 2.122h-1.864a2.122 2.122 0 0 1 -2.122-2.122v-12.664a0 0 0 0 1 0 0z" fill="#dbd8dd" transform="matrix(.707 .707 -.707 .707 72.328 -6.341)"/><path d="m60.638 35.857h11.6a0 0 0 0 1 0 0v49.595a1.724 1.724 0 0 1 -1.724 1.724h-8.152a1.724 1.724 0 0 1 -1.724-1.724v-49.595a0 0 0 0 1 0 0z" fill="#eeefee" transform="matrix(.707 .707 -.707 .707 62.958 -28.962)"/><path d="m63.141 36.769h8.6a0 0 0 0 1 0 0v45.526a1.964 1.964 0 0 1 -1.964 1.964h-4.677a1.964 1.964 0 0 1 -1.964-1.964v-45.526a0 0 0 0 1 .005 0z" fill="#dbd8dd" transform="matrix(.707 .707 -.707 .707 62.543 -29.965)"/><path d="m88.557 26.577h8.603v17.04h-8.603z" fill="#eeefee" transform="matrix(.707 .707 -.707 .707 52.015 -55.381)"/><g fill="#575b6d"><rect height="3.05" rx="1.525" transform="matrix(.707 .707 -.707 .707 49.35 -61.94)" width="14.454" x="92.216" y="27.076"/><path d="m81.4 46.715h5.839a0 0 0 0 1 0 0v1.658a0 0 0 0 1 0 0h-5.839a.829.829 0 0 1 -.829-.829.829.829 0 0 1 .829-.829z" transform="matrix(.707 .707 -.707 .707 58.193 -45.403)"/><path d="m78.395 52.6h3.452a0 0 0 0 1 0 0v1.658a0 0 0 0 1 0 0h-3.452a.829.829 0 0 1 -.829-.829.829.829 0 0 1 .829-.829z" transform="matrix(.707 .707 -.707 .707 61.124 -40.713)"/><path d="m71.318 56.795h5.839a0 0 0 0 1 0 0v1.658a0 0 0 0 1 0 0h-5.839a.829.829 0 0 1 -.829-.829.829.829 0 0 1 .829-.829z" transform="matrix(.707 .707 -.707 .707 62.368 -35.323)"/><path d="m68.315 62.678h3.452a0 0 0 0 1 0 0v1.658a0 0 0 0 1 0 0h-3.452a.829.829 0 0 1 -.829-.829.829.829 0 0 1 .829-.829z" transform="matrix(.707 .707 -.707 .707 65.3 -30.633)"/></g><rect fill="#eeefee" height="4.277" rx="2.138" transform="matrix(.707 .707 -.707 .707 55.03 -48.295)" width="23.67" x="73.976" y="40.141"/><path d="m52.275 63h8.6a0 0 0 0 1 0 0v14.8a1.954 1.954 0 0 1 -1.954 1.954h-4.7a1.954 1.954 0 0 1 -1.946-1.954v-14.8a0 0 0 0 1 0 0z" fill="#ef5261" transform="matrix(.707 .707 -.707 .707 67.044 -19.099)"/><rect fill="#414451" height="3.381" rx=".58" transform="matrix(.707 .707 -.707 .707 64.424 -25.423)" width="10.41" x="57.695" y="63.365"/></g></svg>