<svg id="Capa_1" enable-background="new 0 0 512 512" height="512" viewBox="0 0 512 512" width="512" xmlns="http://www.w3.org/2000/svg"><g><g><circle cx="256" cy="256" fill="#ffe377" r="256"/></g><path d="m363.661 135.247-66.278-66.277-87.605 87.605 75.107 75.107-157.377 192.659 83.757 83.757c14.527 2.56 29.474 3.902 44.735 3.902 141.385 0 256-114.615 256-256 0-6.554-.249-13.049-.733-19.479l-126.775-126.775z" fill="#edbe00"/><path d="m127.508 109.746h256.984v314.595h-256.984z" fill="#7a3eb4"/><path d="m256 109.746h128.492v314.595h-128.492z" fill="#613393"/><path d="m119.703 159.551h272.595v214.984h-272.595z" fill="#eef4ff" transform="matrix(0 1 -1 0 523.044 11.044)"/><path d="m173.449 213.297h272.595v107.492h-272.595z" fill="#d6e9f8" transform="matrix(0 1 -1 0 576.79 -42.703)"/><g><path d="m235.463 187.477h-23.702v-22.494h-18.82v22.494h-22.495v20.029h22.495v22.494h18.82v-22.494h23.702z" fill="#ff6379"/></g><g><g><path d="m170.446 256.752h172.109v15h-172.109z" fill="#b2d7f3"/></g></g><g><g><path d="m170.446 291.125h172.109v15h-172.109z" fill="#b2d7f3"/></g></g><g><g><path d="m170.446 325.499h48.763v15h-48.763z" fill="#b2d7f3"/></g></g><circle cx="307.421" cy="361.091" fill="#eef4ff" r="28.092"/><g><path d="m307.63 381.78-21.697-27.455 11.836-9.216 9.173 11.373 23.295-33.482 12.319 8.559z" fill="#00ddc1"/></g><path d="m297.383 100.225v-31.255h-82.766v31.255h-26.117v44.999h135v-44.999z" fill="#5a5a5a"/><path d="m297.383 68.97h-41.383v76.254h67.5v-44.999h-26.117z" fill="#464646"/><g><g><path d="m256 256.752h86.556v15h-86.556z" fill="#8bbbff"/></g></g><g><g><path d="m256 291.125h86.556v15h-86.556z" fill="#8bbbff"/></g></g><circle cx="256" cy="88.266" fill="#ffe377" r="8.438"/><circle cx="256" cy="88.266" fill="#2499FF" r="8.438"/></g></svg>